<?xml version="1.0" standalone="no"?>
<!DOCTYPE svg PUBLIC "-//W3C//DTD SVG 20010904//EN"
 "http://www.w3.org/TR/2001/REC-SVG-20010904/DTD/svg10.dtd">
<svg version="1.0" xmlns="http://www.w3.org/2000/svg"
 width="300.000000pt" height="200.000000pt" viewBox="0 0 300.000000 200.000000"
 preserveAspectRatio="xMidYMid meet">
<metadata>
Created by potrace 1.10, written by Peter Selinger 2001-2011
</metadata>
<g transform="translate(0.000000,200.000000) scale(0.100000,-0.100000)"
fill="#000000" stroke="none">
<path d="M2750 1881 c0 -13 5 -19 14 -15 8 3 26 -7 40 -21 18 -18 35 -25 54
-23 25 3 27 0 27 -31 1 -24 8 -39 27 -55 l27 -21 -25 -28 c-20 -23 -23 -35
-18 -62 6 -32 5 -34 -25 -33 -31 1 -61 -16 -61 -35 0 -6 -8 -19 -17 -30 -17
-19 -17 -19 2 -16 13 3 21 14 23 31 4 31 32 44 60 29 15 -8 23 -6 36 8 20 22
20 31 1 45 -21 15 -8 54 19 58 15 2 22 11 24 31 3 23 0 27 -21 27 -33 0 -52
41 -30 63 13 13 14 19 3 31 -14 18 -46 21 -55 6 -10 -16 -43 7 -47 32 -4 32
-58 40 -58 9z"/>
<path d="M1579 1831 l-29 -29 0 -134 0 -133 30 0 30 0 0 108 0 107 540 0 540
0 0 -249 c0 -209 2 -252 15 -265 9 -9 15 -33 15 -61 0 -36 6 -54 26 -77 14
-17 28 -43 31 -59 3 -15 14 -36 24 -45 24 -22 24 -56 1 -77 -30 -27 -59 -21
-71 13 -5 17 -21 40 -35 53 -31 27 -67 117 -56 137 11 21 -5 56 -35 76 -49 32
-8 54 53 28 45 -19 53 -10 20 23 -20 19 -36 26 -67 26 -41 0 -81 -24 -81 -48
0 -18 53 -60 73 -57 19 4 25 -32 7 -43 -15 -9 -12 -51 4 -68 8 -8 21 -30 30
-51 8 -20 26 -41 40 -48 15 -6 26 -20 27 -32 0 -12 3 -127 5 -256 2 -129 5
-281 8 -337 l5 -101 -30 10 c-47 16 -98 133 -80 181 8 21 5 32 -14 62 -35 51
-32 66 23 99 26 16 48 31 50 32 6 4 -22 44 -30 44 -4 0 -28 -14 -53 -32 -30
-21 -42 -35 -35 -42 15 -15 12 -78 -5 -100 -16 -22 -20 -72 -6 -80 5 -3 3 -33
-5 -68 -17 -82 -23 -98 -40 -98 -8 0 -14 -4 -14 -10 0 -14 -12 -12 -35 6 -28
21 -24 132 6 173 12 16 27 62 35 102 8 41 21 79 29 85 14 10 14 15 -2 43 -10
17 -21 31 -24 31 -3 0 -17 -59 -29 -130 l-24 -130 -365 2 -366 3 -3 25 c-4 30
-39 70 -62 70 -39 0 -40 10 -40 432 l0 408 -30 0 -30 0 0 -388 0 -389 25 -11
c15 -7 25 -20 25 -32 0 -13 13 -28 34 -41 19 -11 44 -36 55 -55 12 -21 28 -34
40 -34 15 0 23 -10 31 -39 11 -44 1 -87 -27 -109 -14 -10 54 -12 346 -12 359
0 363 0 358 -20 -4 -15 1 -22 18 -26 34 -8 65 4 65 27 0 17 8 19 79 19 72 0
79 -2 84 -21 5 -19 11 -21 39 -15 45 9 52 19 39 57 -7 21 -11 133 -11 321 l0
288 25 -6 c20 -5 31 1 55 26 39 42 41 90 5 114 -17 11 -25 26 -25 46 0 29 -29
70 -50 70 -6 0 -10 122 -10 345 l0 346 -25 24 -24 25 -546 0 -547 0 -29 -29z
m1106 -15 c12 -1 21 -12 23 -25 3 -21 2 -21 -19 -10 -18 9 -99 11 -329 7 -168
-2 -256 -3 -197 -1 80 3 107 7 104 16 -6 18 -232 14 -231 -5 1 -10 -42 -13
-221 -13 -174 0 -221 3 -218 12 11 29 76 32 568 28 275 -3 509 -7 520 -9z
m-89 -1361 c10 -44 10 -45 -14 -45 -22 0 -24 3 -18 31 3 17 6 38 6 45 0 31 16
11 26 -31z m-251 -77 c71 1 89 -11 80 -56 -4 -21 -10 -41 -14 -45 -12 -12
-613 -9 -621 3 -3 6 -4 29 -1 53 l6 42 140 6 c77 3 190 4 250 1 61 -3 132 -5
160 -4z m249 -4 c9 -3 13 -10 10 -15 -3 -5 0 -9 5 -9 6 0 10 -3 9 -7 0 -5 2
-16 6 -25 13 -29 -1 -48 -34 -48 -38 0 -46 19 -31 71 13 42 12 42 35 33z"/>
<path d="M2072 373 c-22 -9 -34 -41 -22 -63 9 -16 21 -20 68 -20 60 0 82 11
82 41 0 30 -29 49 -73 48 -23 0 -48 -3 -55 -6z m106 -25 c22 -22 -5 -48 -51
-48 -54 0 -71 11 -62 39 5 17 14 21 54 21 26 0 52 -5 59 -12z"/>
<path d="M2809 1786 c56 -31 67 -102 22 -147 -16 -16 -24 -29 -17 -29 30 0 56
45 56 97 0 44 -4 55 -26 72 -15 12 -34 21 -43 21 -11 -1 -9 -5 8 -14z"/>
<path d="M120 1708 c-6 -24 -17 -62 -25 -85 -13 -40 -13 -43 5 -43 10 0 20 7
24 15 3 8 17 15 31 15 16 0 25 -6 25 -15 0 -8 9 -15 20 -15 11 0 20 1 20 3 0
1 -11 38 -24 82 -18 64 -27 81 -44 83 -17 3 -23 -4 -32 -40z m42 -38 c4 -23 1
-30 -12 -30 -13 0 -16 7 -12 30 2 17 8 30 12 30 4 0 10 -13 12 -30z"/>
<path d="M226 1678 c8 -84 16 -98 55 -98 41 0 59 32 59 107 0 56 -2 63 -20 63
-17 0 -19 -8 -22 -67 -2 -53 -6 -68 -18 -68 -12 0 -16 15 -18 68 -3 60 -5 67
-23 67 -19 0 -20 -4 -13 -72z"/>
<path d="M350 1735 c0 -8 9 -15 20 -15 18 0 20 -7 20 -70 0 -60 2 -70 18 -70
16 0 17 8 14 70 -4 66 -3 70 17 70 12 0 21 6 21 15 0 12 -13 15 -55 15 -42 0
-55 -3 -55 -15z"/>
<path d="M486 1728 c-23 -33 -21 -103 4 -128 46 -46 100 -9 100 68 0 35 -5 54
-18 65 -26 24 -68 21 -86 -5z m70 -34 c8 -30 -5 -75 -23 -81 -19 -7 -35 36
-28 73 8 43 41 48 51 8z"/>
<path d="M615 1665 c0 -76 2 -85 19 -85 16 0 18 6 12 58 -5 55 -5 56 9 27 8
-16 14 -38 15 -47 0 -11 8 -18 19 -18 14 0 22 12 30 45 16 62 25 57 18 -10 -5
-48 -3 -55 12 -55 15 0 18 11 20 85 2 84 1 85 -23 85 -21 0 -26 -7 -37 -50
-14 -56 -20 -55 -38 8 -9 33 -16 42 -34 42 -21 0 -22 -4 -22 -85z"/>
<path d="M808 1682 c-9 -37 -20 -75 -23 -84 -6 -14 -2 -18 14 -18 12 0 21 6
21 15 0 9 9 15 25 15 16 0 25 -6 25 -15 0 -8 9 -15 20 -15 25 0 25 5 -2 96
-17 62 -25 74 -42 74 -18 0 -24 -11 -38 -68z m51 -24 c1 -10 -6 -18 -15 -18
-12 0 -15 6 -10 23 3 12 6 29 7 37 1 20 17 -18 18 -42z"/>
<path d="M900 1735 c0 -8 9 -15 20 -15 18 0 20 -7 20 -70 0 -56 3 -70 15 -70
12 0 15 14 15 70 0 63 2 70 20 70 11 0 20 7 20 15 0 12 -13 15 -55 15 -42 0
-55 -3 -55 -15z"/>
<path d="M1030 1665 c0 -69 3 -85 15 -85 12 0 15 16 15 85 0 69 -3 85 -15 85
-12 0 -15 -16 -15 -85z"/>
<path d="M1099 1733 c-8 -9 -14 -39 -14 -70 0 -43 4 -58 19 -69 27 -19 60 -18
79 4 23 25 21 42 -3 42 -12 0 -20 -7 -20 -16 0 -9 -7 -14 -17 -12 -26 5 -32
95 -7 105 10 4 20 0 26 -10 11 -21 38 -22 38 -3 0 41 -74 62 -101 29z"/>
<path d="M2192 1654 c-33 -22 -28 -51 13 -75 19 -12 35 -25 35 -29 0 -18 -24
-22 -35 -7 -7 10 -17 17 -24 17 -20 0 -11 -29 14 -46 37 -24 75 -6 75 35 0 23
-8 34 -36 51 -28 16 -34 24 -25 33 8 8 14 8 23 -1 13 -13 38 -16 38 -4 -1 31
-48 48 -78 26z"/>
<path d="M1940 1645 c0 -8 9 -15 20 -15 18 0 20 -7 20 -64 0 -54 3 -64 17 -62
14 2 16 13 14 64 -2 57 -1 62 18 62 12 0 21 6 21 15 0 12 -13 15 -55 15 -42 0
-55 -3 -55 -15z"/>
<path d="M2068 1585 l-3 -75 47 0 c38 0 46 3 42 15 -4 8 -17 15 -30 15 -15 0
-24 6 -24 15 0 9 9 15 25 15 16 0 25 6 25 15 0 9 -9 15 -25 15 -16 0 -25 6
-25 15 0 9 9 15 25 15 16 0 25 6 25 15 0 11 -11 15 -39 15 l-39 0 -4 -75z"/>
<path d="M2280 1645 c0 -9 9 -15 21 -15 19 0 20 -5 18 -62 -2 -51 0 -62 14
-64 14 -2 17 8 17 62 0 57 2 64 20 64 11 0 20 7 20 15 0 12 -13 15 -55 15 -42
0 -55 -3 -55 -15z"/>
<path d="M80 1505 c0 -9 9 -15 21 -15 19 0 21 -5 17 -62 -2 -53 0 -63 15 -66
15 -3 17 5 17 62 0 52 3 66 15 66 8 0 15 7 15 15 0 11 -12 15 -50 15 -38 0
-50 -4 -50 -15z"/>
<path d="M200 1440 l0 -80 40 0 c33 0 40 3 40 20 0 17 -5 19 -25 14 -21 -5
-25 -3 -25 15 0 14 6 21 20 21 11 0 20 7 20 15 0 8 -9 15 -20 15 -11 0 -20 7
-20 15 0 9 9 15 25 15 16 0 25 6 25 15 0 11 -11 15 -40 15 l-40 0 0 -80z"/>
<path d="M313 1512 c-11 -7 -16 -26 -14 -49 0 -7 15 -19 31 -28 17 -9 30 -22
30 -30 0 -17 -27 -20 -32 -4 -2 6 -12 10 -21 8 -16 -4 -16 -6 -2 -26 19 -27
57 -30 79 -7 28 27 14 59 -39 90 -11 6 -15 15 -11 22 5 9 13 8 31 -4 28 -18
43 -3 19 20 -16 17 -51 21 -71 8z"/>
<path d="M400 1505 c0 -8 9 -15 20 -15 18 0 20 -7 20 -65 0 -51 3 -65 15 -65
12 0 15 14 15 65 0 51 3 65 15 65 8 0 15 7 15 15 0 11 -12 15 -50 15 -38 0
-50 -4 -50 -15z"/>
<path d="M577 1502 c-11 -12 -17 -35 -17 -65 0 -39 4 -49 26 -63 41 -27 78 -9
82 39 3 34 1 37 -22 37 -16 0 -26 -6 -26 -15 0 -8 5 -15 10 -15 16 0 12 -20
-6 -27 -29 -11 -47 52 -24 87 7 12 12 12 34 0 30 -16 45 -7 30 18 -16 25 -66
27 -87 4z"/>
<path d="M690 1440 l0 -80 45 0 c38 0 45 3 45 20 0 17 -5 19 -25 14 -21 -5
-25 -3 -25 15 0 14 6 21 20 21 11 0 20 7 20 15 0 8 -9 15 -20 15 -11 0 -20 7
-20 15 0 9 9 15 25 15 16 0 25 6 25 15 0 11 -12 15 -45 15 l-45 0 0 -80z"/>
<path d="M800 1440 c0 -63 3 -80 14 -80 11 0 16 14 18 48 l3 47 22 -47 c35
-76 53 -65 53 32 0 64 -3 80 -15 80 -11 0 -15 -12 -16 -47 l-1 -48 -21 48
c-14 31 -27 47 -39 47 -16 0 -18 -9 -18 -80z"/>
<path d="M933 1443 l2 -78 43 -3 c37 -3 42 -1 42 18 0 17 -4 19 -25 14 -21 -5
-25 -3 -25 15 0 14 6 21 20 21 11 0 20 7 20 15 0 8 -9 15 -20 15 -11 0 -20 7
-20 15 0 9 9 15 25 15 16 0 25 6 25 15 0 11 -12 15 -44 15 l-44 0 1 -77z"/>
<path d="M1040 1440 c0 -64 3 -80 15 -80 10 0 15 10 15 30 0 17 4 30 8 30 4 0
13 -13 19 -30 6 -16 18 -30 27 -30 19 0 21 21 4 38 -10 10 -10 17 0 32 31 50
5 90 -57 90 l-31 0 0 -80z m65 25 c0 -11 -8 -21 -17 -23 -14 -3 -18 3 -18 23
0 20 4 26 18 23 9 -2 17 -12 17 -23z"/>
<path d="M1174 1440 c-21 -77 -21 -80 -3 -80 11 0 19 7 19 15 0 9 9 15 25 15
16 0 25 -6 25 -15 0 -8 7 -15 15 -15 19 0 19 11 -3 90 -14 48 -24 66 -38 68
-16 2 -22 -10 -40 -78z m43 -19 c-15 -6 -20 8 -12 36 l8 28 6 -30 c4 -16 3
-32 -2 -34z"/>
<path d="M1260 1505 c0 -8 9 -15 20 -15 18 0 20 -7 20 -65 0 -51 3 -65 15 -65
12 0 15 14 15 65 0 51 3 65 15 65 8 0 15 7 15 15 0 11 -12 15 -50 15 -38 0
-50 -4 -50 -15z"/>
<path d="M1377 1448 c-7 -76 -4 -88 19 -88 11 0 14 17 14 80 0 61 -3 80 -14
80 -9 0 -15 -21 -19 -72z"/>
<path d="M1447 1502 c-21 -24 -22 -90 -1 -120 18 -27 55 -29 77 -4 22 24 23
105 1 126 -21 21 -57 20 -77 -2z m61 -60 c2 -32 -1 -44 -13 -49 -21 -8 -35 13
-35 53 0 35 8 46 30 42 10 -2 16 -17 18 -46z"/>
<path d="M1562 1443 c3 -89 25 -115 30 -36 l3 48 22 -47 c35 -76 53 -64 53 32
0 64 -3 80 -15 80 -11 0 -15 -12 -16 -47 l-1 -48 -20 48 c-14 33 -26 47 -40
47 -17 0 -19 -7 -16 -77z"/>
<path d="M1737 1443 c-4 -3 -7 -10 -7 -15 0 -4 192 -8 426 -8 336 0 425 3 422
13 -4 9 -98 13 -420 15 -228 1 -417 -1 -421 -5z"/>
<path d="M1724 1315 c-15 -23 -15 -27 0 -50 27 -40 96 -25 96 21 0 55 -66 75
-96 29z m64 3 c18 -18 15 -46 -6 -57 -39 -21 -73 36 -34 58 22 13 26 13 40 -1z"/>
<path d="M2073 1332 c-124 -1 -203 -6 -203 -12 0 -6 80 -10 210 -10 125 0 210
4 210 9 0 6 -3 11 -7 13 -5 2 -99 2 -210 0z"/>
<path d="M232 1299 c-24 -9 -42 -45 -42 -85 0 -25 40 -74 60 -74 6 0 22 11 35
25 54 53 13 159 -53 134z m38 -38 c14 -27 13 -54 -4 -77 -20 -26 -40 -5 -39
40 2 56 23 74 43 37z"/>
<path d="M522 1299 c-36 -14 -29 -55 13 -80 19 -12 35 -25 35 -29 0 -18 -24
-22 -35 -7 -16 22 -49 23 -41 1 3 -9 6 -18 6 -20 0 -3 12 -9 26 -15 32 -12 74
11 74 41 0 17 -35 53 -63 63 -9 3 -9 8 -1 17 9 9 16 9 32 -1 25 -16 40 -6 23
15 -16 19 -42 25 -69 15z"/>
<path d="M910 1297 c-38 -19 -48 -96 -17 -134 5 -7 24 -13 43 -13 40 0 54 21
54 77 0 61 -36 92 -80 70z m38 -29 c17 -17 15 -73 -3 -88 -22 -18 -35 -3 -35
44 0 55 12 70 38 44z"/>
<path d="M1050 1302 c-26 -8 -40 -34 -40 -77 0 -51 18 -77 54 -77 41 0 59 24
59 76 0 61 -29 92 -73 78z m40 -77 c0 -48 -13 -64 -35 -45 -18 15 -20 71 -4
87 22 22 39 2 39 -42z"/>
<path d="M94 1225 c0 -65 3 -75 18 -75 13 0 18 8 18 30 0 23 4 30 20 30 11 0
20 7 20 15 0 8 -9 15 -20 15 -11 0 -20 7 -20 15 0 9 9 15 25 15 16 0 25 6 25
15 0 11 -11 15 -43 15 l-43 0 0 -75z"/>
<path d="M330 1225 c0 -66 2 -75 19 -75 14 0 17 6 13 25 -2 14 0 25 7 25 6 0
13 -11 17 -25 4 -16 13 -25 25 -25 22 0 23 4 8 32 -8 14 -8 23 0 31 15 15 14
60 -1 75 -7 7 -29 12 -50 12 l-38 0 0 -75z m70 24 c0 -10 -2 -19 -4 -19 -2 0
-11 -3 -20 -6 -12 -5 -16 0 -16 18 0 14 3 27 6 31 11 11 34 -5 34 -24z"/>
<path d="M632 1288 c-45 -57 -7 -158 55 -142 27 7 50 54 26 54 -9 0 -21 -7
-28 -17 -19 -25 -35 -6 -35 42 0 48 16 67 35 42 15 -20 35 -22 35 -4 0 33 -66
52 -88 25z"/>
<path d="M740 1225 c0 -68 2 -75 20 -75 16 0 20 7 20 30 0 23 4 30 20 30 16 0
20 -7 20 -30 0 -19 5 -30 14 -30 11 0 15 18 18 75 3 66 1 75 -14 75 -13 0 -18
-8 -18 -30 0 -23 -4 -30 -20 -30 -16 0 -20 7 -20 30 0 23 -4 30 -20 30 -18 0
-20 -7 -20 -75z"/>
<path d="M1150 1225 l0 -75 40 0 c29 0 40 4 40 15 0 9 -9 15 -25 15 -24 0 -25
3 -25 60 0 47 -3 60 -15 60 -12 0 -15 -15 -15 -75z"/>
<path d="M1870 1260 c0 -6 102 -10 285 -10 183 0 285 4 285 10 0 6 -102 10
-285 10 -183 0 -285 -4 -285 -10z"/>
<path d="M2175 1213 c9 -38 13 -40 33 -19 16 16 16 18 -2 32 -29 21 -39 17
-31 -13z"/>
<path d="M2250 1182 c0 -5 11 -15 25 -22 14 -8 23 -20 21 -27 -8 -19 124 -204
154 -216 14 -6 33 -17 43 -25 13 -12 17 -12 17 -2 0 22 54 99 75 106 18 6 18
7 -5 16 -20 7 -27 5 -42 -14 -10 -13 -18 -29 -18 -35 0 -12 -48 -49 -54 -42
-1 2 -33 49 -71 104 -37 55 -77 111 -89 123 -24 28 -56 47 -56 34z"/>
<path d="M2511 1167 c-14 -14 -14 -21 3 -62 11 -25 19 -33 31 -29 14 6 14 8 1
23 -8 9 -17 30 -21 46 -4 20 -4 26 3 16 6 -8 12 -9 16 -3 9 14 -20 22 -33 9z"/>
<path d="M1254 1138 c-32 -15 -67 -28 -78 -28 -17 0 -18 -6 -14 -68 3 -37 12
-82 22 -99 l16 -33 -172 -2 -173 -3 -3 -27 c-2 -20 -9 -28 -23 -28 -10 0 -19
-4 -19 -10 0 -5 9 -10 20 -10 15 0 20 -7 20 -25 0 -18 -5 -25 -20 -25 -11 0
-20 -4 -20 -10 0 -5 9 -10 20 -10 15 0 20 -7 20 -25 0 -18 -5 -25 -20 -25 -11
0 -20 -4 -20 -10 0 -5 9 -10 20 -10 15 0 20 -7 20 -25 0 -18 -5 -25 -20 -25
-11 0 -20 -4 -20 -10 0 -5 9 -10 20 -10 15 0 20 -7 20 -25 0 -19 -5 -25 -21
-25 -12 0 -19 -5 -16 -12 2 -7 11 -12 21 -10 11 2 16 -4 16 -23 0 -19 -5 -25
-21 -25 -12 0 -19 -5 -16 -12 2 -7 11 -12 21 -10 12 2 16 -5 16 -28 0 -23 -4
-30 -16 -28 -12 2 -17 -6 -20 -27 -2 -24 -1 -27 7 -12 13 22 18 22 83 -8 30
-14 67 -30 81 -35 21 -8 25 -14 20 -33 -7 -21 -7 -21 8 -3 13 17 18 18 45 7
l31 -13 -20 -45 c-10 -24 -19 -47 -19 -49 0 -2 71 -4 159 -4 133 0 161 -3 172
-16 10 -12 25 -15 55 -11 38 4 46 1 75 -29 36 -37 59 -44 59 -16 -1 20 -30 63
-30 42 0 -9 -6 -8 -21 6 -14 12 -32 17 -56 15 -35 -3 -93 15 -93 29 0 18 41
42 65 38 14 -3 25 -1 25 3 0 5 -15 9 -34 9 -25 0 -40 -7 -54 -25 -17 -21 -28
-25 -75 -25 -41 0 -61 5 -83 22 -15 13 -25 18 -21 11 9 -14 -15 -23 -59 -23
-37 0 -54 21 -35 44 8 10 7 18 -7 33 -19 22 -161 83 -195 83 -20 1 -20 2 -4
11 21 12 13 29 -14 29 -28 0 -25 38 4 42 29 4 29 22 -1 26 -17 3 -22 9 -20 25
2 13 10 22 20 22 26 0 26 20 1 23 -17 3 -23 10 -23 28 0 19 5 24 26 24 14 0
23 4 19 10 -3 6 -15 10 -26 10 -30 0 -22 44 9 48 27 4 19 22 -9 22 -30 0 -22
44 9 48 26 4 20 22 -9 22 -14 0 -19 7 -19 25 0 20 5 25 26 25 14 0 23 4 19 10
-3 6 -16 10 -28 10 -20 0 -20 1 -5 16 14 14 39 16 156 15 156 -1 189 7 184 48
l-4 24 38 -22 c49 -29 85 -21 125 30 17 21 35 39 40 39 9 0 3 -59 -7 -69 -2
-2 3 -15 11 -27 11 -17 15 -62 17 -180 2 -115 6 -158 16 -162 9 -3 12 35 12
168 0 161 -1 172 -19 177 -19 5 -19 6 -1 46 10 23 20 67 24 98 l6 57 -43 10
c-23 6 -58 20 -78 30 -35 18 -35 18 -95 -10z m96 -25 c31 -15 32 -17 14 -30
-10 -8 -29 -23 -42 -33 -13 -12 -37 -20 -56 -20 -19 0 -38 -4 -41 -10 -15 -24
-35 -9 -35 25 0 29 5 37 28 47 15 6 41 17 57 24 38 17 36 17 75 -3z m50 -66
c0 -13 -97 -117 -109 -117 -4 0 -20 13 -35 29 -19 20 -26 36 -22 47 6 15 9 15
32 -7 l25 -23 46 46 c44 44 63 52 63 25z"/>
<path d="M1725 1146 c-33 -50 20 -104 70 -72 30 20 33 56 7 79 -26 24 -59 21
-77 -7z m70 -31 c0 -23 -5 -31 -21 -33 -27 -4 -47 21 -39 48 5 16 14 20 33 18
23 -2 27 -8 27 -33z"/>
<path d="M1757 1134 c-14 -14 -7 -35 11 -32 9 2 17 10 17 17 0 16 -18 25 -28
15z"/>
<path d="M1870 1150 c0 -6 57 -10 150 -10 93 0 150 4 150 10 0 6 -57 10 -150
10 -93 0 -150 -4 -150 -10z"/>
<path d="M1870 1085 c0 -13 24 -15 160 -15 136 0 160 2 160 15 0 13 -24 15
-160 15 -136 0 -160 -2 -160 -15z"/>
<path d="M2238 1048 c16 -24 30 -47 31 -51 0 -5 -89 -8 -199 -7 -174 1 -200
-1 -200 -15 0 -13 28 -15 215 -15 l216 0 17 -31 c9 -18 29 -46 43 -63 14 -17
49 -66 78 -108 28 -43 56 -78 61 -78 23 0 6 38 -35 80 -25 25 -45 48 -45 52 0
4 29 -11 65 -33 59 -37 142 -68 130 -49 -3 4 2 14 11 21 17 14 58 89 51 95 -2
2 -12 -14 -22 -36 -37 -82 -65 -86 -162 -24 -89 56 -82 99 10 63 69 -27 70
-18 1 10 l-55 23 -23 -21 -22 -21 -18 22 c-10 11 -20 28 -21 37 -2 9 -4 18 -5
21 -1 3 -2 9 -1 13 1 5 -3 6 -9 2 -5 -3 -10 1 -10 9 0 9 -5 16 -11 16 -5 0 -7
5 -4 10 3 6 -1 10 -9 10 -9 0 -16 7 -16 16 0 8 -10 33 -22 54 -16 28 -30 40
-46 40 l-23 0 29 -42z"/>
<path d="M1742 993 c-22 -9 -33 -40 -23 -66 13 -33 46 -43 76 -23 55 36 8 114
-53 89z m56 -45 c2 -19 -2 -28 -18 -33 -37 -12 -64 27 -38 53 21 21 53 10 56
-20z"/>
<path d="M1870 910 c0 -6 72 -10 195 -10 123 0 195 4 195 10 0 6 -72 10 -195
10 -123 0 -195 -4 -195 -10z"/>
<path d="M1735 806 c-34 -34 -16 -86 31 -86 51 0 73 65 32 94 -30 21 -35 20
-63 -8z m53 -5 c8 -4 12 -19 10 -32 -4 -33 -53 -40 -63 -9 -11 36 22 61 53 41z"/>
<path d="M1877 814 c-20 -21 12 -24 219 -24 176 0 225 3 222 13 -4 9 -59 13
-219 15 -118 2 -218 0 -222 -4z"/>
<path d="M1010 789 c-35 -14 -40 -26 -40 -99 0 -75 5 -85 45 -100 33 -13 253
-12 298 1 41 12 47 23 47 95 0 99 -6 103 -180 108 -80 2 -156 0 -170 -5z m318
-101 l3 -78 -166 0 -165 0 0 80 0 80 163 -2 162 -3 3 -77z"/>
<path d="M1040 710 c0 -6 48 -10 125 -10 77 0 125 4 125 10 0 6 -48 10 -125
10 -77 0 -125 -4 -125 -10z"/>
<path d="M1040 660 c0 -6 40 -10 100 -10 60 0 100 4 100 10 0 6 -40 10 -100
10 -60 0 -100 -4 -100 -10z"/>
<path d="M1870 740 c0 -6 63 -10 170 -10 107 0 170 4 170 10 0 6 -63 10 -170
10 -107 0 -170 -4 -170 -10z"/>
<path d="M2626 695 c7 -16 24 -21 24 -6 0 5 10 12 23 14 14 3 8 5 -15 6 -29 1
-36 -2 -32 -14z"/>
<path d="M1724 625 c-15 -23 -15 -27 0 -50 27 -40 96 -25 96 21 0 55 -66 75
-96 29z m71 -25 c0 -20 -6 -26 -26 -28 -17 -2 -29 3 -32 12 -11 28 4 47 32 44
20 -2 26 -8 26 -28z"/>
<path d="M1872 629 c5 -15 381 -15 386 0 3 8 -53 11 -193 11 -134 0 -196 -3
-193 -11z"/>
<path d="M2681 584 c-1 -22 -37 -44 -74 -44 -19 -1 -20 -2 -5 -10 33 -20 94
22 85 57 -4 15 -5 15 -6 -3z"/>
<path d="M1477 562 c-36 -22 -55 -82 -40 -123 6 -16 7 -29 3 -29 -10 0 -25
-40 -22 -57 2 -7 -4 -13 -11 -13 -18 0 -67 -39 -50 -40 6 0 15 5 18 10 4 6 33
9 65 8 38 -1 64 3 75 12 21 18 133 30 158 18 9 -5 17 -15 17 -23 0 -8 5 -15
10 -15 6 0 10 5 10 10 0 14 -37 50 -51 50 -6 0 -8 7 -5 16 9 24 -20 64 -47 64
-21 0 -21 -1 3 -13 18 -9 25 -21 25 -42 0 -29 -2 -30 -57 -35 -31 -3 -63 -11
-70 -18 -6 -6 -27 -12 -45 -12 -29 0 -33 3 -33 28 0 38 16 53 46 42 24 -10 54
-4 54 10 0 4 -11 5 -25 2 -30 -5 -65 22 -65 50 0 10 6 34 14 53 12 27 21 34
48 37 18 2 32 8 31 13 -3 17 -27 16 -56 -3z"/>
<path d="M580 484 c-16 -40 -6 -53 12 -16 9 18 12 34 7 38 -5 3 -14 -7 -19
-22z"/>
<path d="M1507 503 c-10 -9 -9 -53 1 -53 5 0 8 10 8 22 -1 17 6 24 29 29 l30
7 -31 1 c-17 0 -34 -2 -37 -6z"/>
<path d="M1350 480 c-11 -11 -20 -24 -20 -30 0 -5 -10 -10 -23 -10 -26 0 -67
-26 -67 -42 0 -6 11 -1 25 12 19 18 31 21 55 16 17 -3 29 -2 25 3 -9 16 6 41
34 56 19 10 21 14 9 15 -10 0 -27 -9 -38 -20z"/>
<path d="M670 445 c-6 -15 -13 -32 -16 -36 -3 -5 -1 -9 4 -9 12 0 37 58 29 67
-4 3 -11 -7 -17 -22z"/>
<path d="M512 414 c-11 -23 -10 -26 24 -40 42 -17 60 -11 20 7 -25 12 -30 20
-27 47 3 20 -5 14 -17 -14z"/>
<path d="M761 394 c-17 -48 -6 -56 13 -9 18 43 19 45 8 45 -4 0 -14 -16 -21
-36z"/>
<path d="M1260 350 c-11 -11 -20 -27 -20 -35 0 -18 43 -65 60 -65 20 0 10 19
-12 22 -19 2 -23 9 -23 38 0 31 3 35 28 38 15 2 25 8 22 13 -10 15 -34 10 -55
-11z"/>
<path d="M591 356 c4 -5 148 -68 197 -87 12 -5 22 -6 22 -4 0 4 -51 29 -130
62 -19 8 -43 19 -52 24 -18 9 -45 13 -37 5z"/>
<path d="M1614 289 c-4 -7 -21 -9 -40 -6 -21 4 -32 2 -29 -4 10 -15 71 -10 85
6 8 9 9 15 2 15 -6 0 -14 -5 -18 -11z"/>
<path d="M850 225 c0 -21 32 -35 77 -34 l38 1 -50 23 c-60 28 -65 29 -65 10z"/>
<path d="M1634 229 c-4 -7 -27 -10 -60 -7 -61 5 -73 -6 -18 -16 37 -7 104 9
104 25 0 13 -17 11 -26 -2z"/>
<path d="M1683 233 c-7 -2 -13 -11 -13 -19 0 -18 -41 -35 -71 -29 -28 6 -46
-5 -28 -16 29 -18 95 -10 117 14 33 35 30 65 -5 50z"/>
<path d="M2747 178 c-10 -5 -24 -7 -31 -5 -18 7 -99 -31 -91 -43 7 -11 113
-14 139 -4 17 6 21 31 8 51 -5 8 -13 8 -25 1z"/>
<path d="M2389 157 c-58 -24 -39 -39 47 -35 66 3 69 4 72 29 3 23 0 25 -37 25
-22 -1 -59 -9 -82 -19z"/>
</g>
</svg>
